<svg xmlns="http://www.w3.org/2000/svg" width="48" height="48" viewBox="0 0 48 48" fill="none">
  <path d="M23.7119 2C22.6173 1.99977 21.5333 2.21644 20.5219 2.63765C19.5105 3.05887 18.5916 3.67637 17.8176 4.45487C17.0435 5.23337 16.4296 6.15763 16.0108 7.17484C15.592 8.19205 15.3765 9.28228 15.3768 10.3832C15.3768 12.6066 16.2549 14.7389 17.8181 16.3111C19.3812 17.8833 21.5013 18.7665 23.7119 18.7665C25.9224 18.766 28.0422 17.8826 29.6052 16.3106C31.1683 14.7385 32.0466 12.6065 32.047 10.3832C32.047 8.15987 31.1689 6.02756 29.6057 4.45539C28.0426 2.88323 25.9225 2 23.7119 2ZM27.2971 10.3832L23.7119 13.9891L20.125 10.3832L23.7119 6.77561L27.2971 10.3832Z" fill="black"/>
  <path d="M15.8747 7.52148H2.00354V11.9394H15.519C15.4226 11.4263 15.3737 10.9054 15.3732 10.3833C15.3734 9.40725 15.5431 8.43875 15.8747 7.52148Z" fill="#ABE121"/>
  <path d="M42.221 7.52148H31.5509C31.8819 8.43887 32.051 9.40735 32.0506 10.3833C32.0501 10.9054 32.0012 11.4263 31.9048 11.9394H42.2192C42.7157 11.9394 43.2074 12.0377 43.6661 12.2288C44.1248 12.4199 44.5416 12.7 44.8926 13.0531C45.2437 13.4062 45.5222 13.8254 45.7122 14.2868C45.9022 14.7481 46 15.2426 46 15.742V11.3223C46 10.3143 45.6019 9.34751 44.8932 8.63472C44.1845 7.92193 43.2233 7.52148 42.221 7.52148Z" fill="#ABE121"/>
  <path d="M42.221 14.1876H2V42.1974C2 43.2059 2.39832 44.1731 3.10736 44.8862C3.81639 45.5993 4.77805 46 5.78078 46H42.221C43.2234 45.9995 44.1846 45.5987 44.8933 44.8856C45.6019 44.1725 46 43.2056 46 42.1974V17.9884C46 16.9804 45.6018 16.0136 44.8932 15.3009C44.1844 14.5881 43.2233 14.1876 42.221 14.1876Z" fill="#ABE121"/>
  <path d="M28.1667 29.6216C28.1667 30.9499 28.6913 32.2237 29.6251 33.1629C30.5589 34.1021 31.8254 34.6298 33.1461 34.6298H46V24.6224H33.1425C31.824 24.6234 30.5598 25.1502 29.627 26.0874C28.6942 27.0246 28.169 28.2956 28.1667 29.6216Z" fill="black"/>
  <rect x="2" y="8" width="7" height="16" fill="#ABE121"/>
</svg>
