<svg width="32" height="32" viewBox="0 0 32 32" fill="none" xmlns="http://www.w3.org/2000/svg">
<path d="M16 3.92384C16.921 3.92187 17.8333 4.10163 18.6846 4.45314C19.5359 4.80468 20.3097 5.3214 20.9609 5.97267C21.612 6.62379 22.128 7.39704 22.4795 8.24806C22.831 9.09939 23.0108 10.0126 23.0088 10.9336V13.2188H26.666V28.0752H5.33301V13.2188H8.99023V10.9336C9.01005 9.08078 9.75522 7.30928 11.0654 5.99904C12.3757 4.68879 14.1471 3.94366 16 3.92384ZM15.998 16.6094C15.3295 16.6086 14.686 16.8649 14.2012 17.3252C13.7163 17.7858 13.4271 18.4161 13.3936 19.084C13.3929 19.5357 13.5132 19.9798 13.7422 20.3692C13.9711 20.7583 14.3004 21.079 14.6953 21.2979V24.6846H17.3008V21.4287C17.7076 21.2238 18.0473 20.9054 18.2783 20.5127C18.509 20.1202 18.6221 19.6688 18.6035 19.2139C18.6034 18.872 18.5361 18.5326 18.4053 18.2168C18.2744 17.901 18.0816 17.6138 17.8398 17.3721C17.598 17.1304 17.311 16.9385 16.9951 16.8076C16.6791 16.6768 16.3401 16.6094 15.998 16.6094ZM16 7.12404C14.9554 7.14357 13.9585 7.56688 13.2197 8.30568C12.481 9.04447 12.0576 10.0413 12.0381 11.086V13.2188H19.9619V11.086C19.966 10.5645 19.8656 10.047 19.668 9.56447C19.4704 9.08221 19.179 8.64397 18.8105 8.27541C18.4418 7.90671 18.003 7.61467 17.5205 7.41701C17.0381 7.21941 16.5213 7.12002 16 7.12404Z" fill="#101112"/>
</svg>
